<svg xmlns="http://www.w3.org/2000/svg" width="57" height="47" viewBox="0 0 57 47">
  <path id="Exclusion_671" data-name="Exclusion 671" d="M55.705,47H1.3A1.3,1.3,0,0,1,0,45.693V43.083a1.3,1.3,0,0,1,1.3-1.3h9.066V2.611A2.6,2.6,0,0,1,12.956,0h31.09a2.6,2.6,0,0,1,2.591,2.611V41.778h9.069A1.3,1.3,0,0,1,57,43.083v2.611A1.3,1.3,0,0,1,55.705,47ZM16.841,36.557a1.3,1.3,0,0,0-1.294,1.3v3.917H41.456V37.861a1.3,1.3,0,0,0-1.3-1.3ZM37.568,26.111a1.3,1.3,0,0,0-1.294,1.307v2.611a1.3,1.3,0,0,0,1.294,1.3h2.591a1.3,1.3,0,0,0,1.3-1.3V27.417a1.3,1.3,0,0,0-1.3-1.307Zm-10.363,0a1.3,1.3,0,0,0-1.3,1.307v2.611a1.3,1.3,0,0,0,1.3,1.3H29.8a1.3,1.3,0,0,0,1.294-1.3V27.417A1.3,1.3,0,0,0,29.8,26.111Zm-10.365,0a1.3,1.3,0,0,0-1.294,1.307v2.611a1.3,1.3,0,0,0,1.294,1.3h2.591a1.3,1.3,0,0,0,1.3-1.3V27.417a1.3,1.3,0,0,0-1.3-1.307ZM37.568,15.667a1.3,1.3,0,0,0-1.294,1.3v2.611a1.3,1.3,0,0,0,1.294,1.307h2.591a1.3,1.3,0,0,0,1.3-1.307V16.972a1.3,1.3,0,0,0-1.3-1.3Zm-10.363,0a1.3,1.3,0,0,0-1.3,1.3v2.611a1.3,1.3,0,0,0,1.3,1.307H29.8a1.3,1.3,0,0,0,1.294-1.307V16.972a1.3,1.3,0,0,0-1.294-1.3Zm-10.365,0a1.3,1.3,0,0,0-1.294,1.3v2.611a1.3,1.3,0,0,0,1.294,1.307h2.591a1.3,1.3,0,0,0,1.3-1.307V16.972a1.3,1.3,0,0,0-1.3-1.3ZM37.568,5.222a1.3,1.3,0,0,0-1.294,1.307V9.139a1.3,1.3,0,0,0,1.294,1.3h2.591a1.3,1.3,0,0,0,1.3-1.3V6.528a1.3,1.3,0,0,0-1.3-1.307Zm-20.728,0a1.3,1.3,0,0,0-1.294,1.307V9.139a1.3,1.3,0,0,0,1.294,1.3h2.591a1.3,1.3,0,0,0,1.3-1.3V6.528a1.3,1.3,0,0,0-1.3-1.307Z" fill="#f6f6f6"/>
</svg>
