<svg xmlns="http://www.w3.org/2000/svg" width="33" height="24" viewBox="0 0 33 24">
  <path id="Icon_color" data-name="Icon color" d="M10.083,24H.917A.89.89,0,0,1,0,23.142V21.428a.89.89,0,0,1,.917-.858h9.166a.89.89,0,0,1,.917.858v1.714A.89.89,0,0,1,10.083,24Zm11-10.286H.917A.89.89,0,0,1,0,12.856V11.142a.889.889,0,0,1,.917-.856H21.084a.889.889,0,0,1,.916.856v1.714A.889.889,0,0,1,21.084,13.714Zm11-10.286H.917A.889.889,0,0,1,0,2.572V.858A.89.89,0,0,1,.917,0H32.083A.89.89,0,0,1,33,.858V2.572A.889.889,0,0,1,32.083,3.428Z" fill="#4baaea"/>
</svg>
