<svg xmlns="http://www.w3.org/2000/svg" width="39" height="39" viewBox="0 0 39 39">
  <path id="Icon_color" data-name="Icon color" d="M34.667,39H4.333A4.338,4.338,0,0,1,0,34.667V6.5A6.507,6.507,0,0,1,6.5,0H30.334a4.338,4.338,0,0,1,4.333,4.333H6.5a2.166,2.166,0,0,0,0,4.333H34.667A4.339,4.339,0,0,1,39,13V34.667A4.338,4.338,0,0,1,34.667,39ZM19.5,17.334A2.169,2.169,0,0,0,17.334,19.5v8.666A2.17,2.17,0,0,0,19.5,30.334H34.667v-13ZM24.917,26H22.751a1.084,1.084,0,0,1-1.084-1.082V22.751a1.085,1.085,0,0,1,1.084-1.084h2.166A1.084,1.084,0,0,1,26,22.751v2.166A1.083,1.083,0,0,1,24.917,26Z" fill="#f6f6f6"/>
</svg>
